<?xml version="1.0" encoding="iso-8859-1"?>
<!-- Generator: Adobe Illustrator 18.0.0, SVG Export Plug-In . SVG Version: 6.00 Build 0)  -->
<!DOCTYPE svg PUBLIC "-//W3C//DTD SVG 1.1//EN" "http://www.w3.org/Graphics/SVG/1.1/DTD/svg11.dtd">
<svg version="1.1" id="Capa_1" xmlns="http://www.w3.org/2000/svg" xmlns:xlink="http://www.w3.org/1999/xlink" x="0px" y="0px"
	 viewBox="0 0 420.333 420.333" style="enable-background:new 0 0 420.333 420.333;fill:#25303B;" xml:space="preserve">
<g>
	<path d="M75.301,79.581c27.847,7.957,56.303,13.414,85.043,16.345c5.057,6.842,15.683,12.101,29.122,14.777v12.429
		c0,2.209,1.791,4,4,4h33.402c2.209,0,4-1.791,4-4v-12.429c13.438-2.676,24.064-7.935,29.121-14.777
		c28.74-2.931,57.196-8.388,85.043-16.345c1.357-0.388,2.409-1.461,2.77-2.826c0.359-1.364-0.026-2.817-1.016-3.823
		c-20.855-21.216-48.693-33.884-78.387-35.672c-0.681-0.04-1.361-0.053-2.039-0.05C256.865,14.837,234.653,0,210.167,0
		c-24.486,0-46.698,14.836-56.193,37.208c-0.679-0.002-1.359,0.012-2.04,0.052c-29.693,1.788-57.531,14.456-78.387,35.672
		c-0.989,1.006-1.375,2.459-1.016,3.823C72.892,78.12,73.943,79.193,75.301,79.581z M210.166,90.47
		c-37.625,0-75.077-4.401-111.629-13.087h223.26C285.244,86.068,247.792,90.47,210.166,90.47z M222.868,119.132h-25.402v-7.184
		c4.073,0.466,8.326,0.714,12.701,0.714s8.628-0.248,12.701-0.714V119.132z M210.167,104.662c-15.612,0-28.121-3.235-35.968-7.523
		c11.957,0.878,23.953,1.331,35.967,1.331c12.015,0,24.011-0.453,35.968-1.331C238.287,101.427,225.778,104.662,210.167,104.662z
		 M210.167,8c20.534,0,39.225,12.007,47.923,30.317c-1.387,0.371-2.758,0.824-4.101,1.381c-13.962,5.793-28.705,8.73-43.821,8.73
		s-29.86-2.938-43.822-8.73c-1.343-0.557-2.713-1.011-4.101-1.382C170.942,20.007,189.634,8,210.167,8z M152.414,45.246
		c3.713-0.225,7.398,0.404,10.864,1.841c14.939,6.198,30.715,9.342,46.889,9.342s31.949-3.144,46.888-9.342
		c3.466-1.438,7.148-2.063,10.864-1.841c23.122,1.392,45.024,9.872,62.957,24.137H89.458
		C107.39,55.118,129.292,46.638,152.414,45.246z"/>
	<path d="M225.818,23.803c4.31,1.808,10.089,5.23,13.151,11.276c0.705,1.392,2.111,2.193,3.571,2.193
		c0.608,0,1.226-0.14,1.805-0.433c1.971-0.998,2.759-3.405,1.761-5.376c-4.161-8.215-11.647-12.712-17.194-15.038
		c-2.035-0.854-4.38,0.104-5.235,2.142C222.822,20.604,223.781,22.948,225.818,23.803z"/>
	<path d="M350.761,414.694l-125.255-279.11c-0.905-2.016-3.274-2.914-5.287-2.012c-2.016,0.904-2.916,3.271-2.012,5.287
		l125.255,279.11c0.666,1.483,2.124,2.363,3.651,2.363c0.548,0,1.104-0.113,1.636-0.352
		C350.765,419.077,351.665,416.71,350.761,414.694z"/>
	<path d="M200.114,133.572c-2.016-0.902-4.382-0.004-5.287,2.012L69.572,414.694c-0.904,2.016-0.004,4.383,2.012,5.287
		c0.532,0.238,1.088,0.352,1.636,0.352c1.527,0,2.985-0.88,3.651-2.363l125.255-279.11
		C203.03,136.844,202.13,134.477,200.114,133.572z"/>
	<path d="M253.544,294.133c-9.521-1.56-41.302-7.841-50.563-23.212c-0.119-0.197-0.246-0.386-0.372-0.577
		c1.439-1.255,1.82-3.392,0.796-5.08l-5.595-9.225c-1.181-1.945-3.756-2.53-5.667-1.234c-1.796,1.218-2.179,3.724-1.054,5.579
		l1.74,2.869c-0.874-0.23-1.766-0.387-2.668-0.474l-4.828-7.961c-1.083-1.786-3.357-2.589-5.238-1.681
		c-2.158,1.042-2.904,3.682-1.692,5.682l3.258,5.373c-1.408,0.638-2.733,1.464-3.925,2.479c-3.073,2.614-6.482,5.359-10.135,8.161
		c-0.646,0.495-1.181,1.152-1.44,1.923c-0.637,1.899,0.17,3.846,1.766,4.777c9.563,5.577,12.869,11.471,14.416,19.358
		c0.005,0.049,0.02,0.098,0.028,0.147c0.669,3.471,1.007,7.325,1.388,11.71c0.064,0.736,0.129,1.479,0.197,2.233
		c0.612,6.817-0.41,13.722-3.251,19.948c-2.728,5.978-5.92,9.224-6.011,9.315c-1.573,1.54-1.605,4.063-0.07,5.645
		c0.784,0.808,1.826,1.213,2.869,1.213c1.005,0,2.01-0.376,2.787-1.131c0.385-0.374,8.192-8.118,11.153-22.164
		c1.849,1.421,4.151,3.061,6.925,4.826c-0.5,7.213-5.457,17.976-7.512,21.834c-1.039,1.949-0.301,4.372,1.647,5.411
		c0.6,0.319,1.244,0.471,1.879,0.471c1.43,0,2.812-0.768,3.532-2.116c0.75-1.405,6.144-11.738,7.93-21.236
		c5.925,3.177,13.224,6.474,22.005,9.43c-2.706,5.17-8.427,9.622-10.77,11.1c-1.868,1.174-2.434,3.639-1.263,5.51
		c0.76,1.212,2.063,1.878,3.395,1.878c0.725,0,1.459-0.197,2.119-0.61c0.463-0.291,10.214-6.486,14.251-15.487
		c1.53,0.434,3.084,0.86,4.691,1.268c0.987,0.251,1.984,0.378,2.963,0.378c0.001,0,0.001,0,0.002,0c0.49,0,0.967-0.037,1.436-0.095
		c-2.655,10.503-8.101,16.898-8.174,16.982c-1.452,1.657-1.29,4.178,0.363,5.636c0.761,0.671,1.704,1,2.644,1
		c1.108,0,2.212-0.458,3.002-1.354c0.357-0.405,8.37-9.641,10.868-24.759c0.001-0.008,0.003-0.016,0.004-0.024
		c0.305-1.872,0.945-3.685,1.997-5.263c3.936-5.906,6.496-14.124,8.241-21.026c0.658-2.605,1.985-8.527,2.119-9.098
		c0.956-4.067,0.175-8.389-2.142-11.856C261.287,297.159,257.626,294.801,253.544,294.133z M252.234,330.993
		c-1.974-0.356-4.03-0.935-6.083-1.755c-3.867-1.539-7.308-3.738-9.439-6.035c-1.716-1.849-1.975-3.112-1.875-3.361
		c0.418-1.049,6.291-2.375,14.676,0.973c1.883,0.752,3.64,1.659,5.221,2.656C253.886,326.381,253.051,328.871,252.234,330.993z
		 M217.948,292.295c3.992,1.829,8.646,3.586,14.065,5.192c-1.385,2.118-3.776,3.5-6.448,3.5c-4.24,0-7.69-3.45-7.69-7.691
		C217.875,292.958,217.906,292.625,217.948,292.295z M195.325,318.801c-0.88,0-1.728-0.085-2.532-0.252
		c-0.184-0.163-0.356-0.317-0.503-0.452c-0.215-2.081-0.39-4.089-0.561-6.043c-0.24-2.753-0.472-5.401-0.791-7.953
		c5.065,1.412,12.248,7.45,12.635,9.793C203.573,316.215,200.186,318.801,195.325,318.801z M243.229,342.461
		c-0.316,0-0.651-0.044-0.997-0.132c-18.588-4.717-31.705-11.438-39.961-16.74c5.539-2.035,9.302-6.447,9.302-11.696
		c0-4.951-5.205-9.684-8.308-12.063c-1.807-1.386-8.064-5.836-13.892-6.016c-1.833-6.658-5.273-12.606-12.573-18.018
		c2.15-1.714,4.197-3.397,6.12-5.033c1.568-1.335,3.57-2.07,5.638-2.07c1.591,0,3.154,0.436,4.521,1.259
		c1.214,0.731,2.269,1.804,3.05,3.1c2.151,3.57,6.369,8.533,14.51,13.418c-0.499,1.549-0.763,3.172-0.763,4.826
		c0,8.652,7.039,15.691,15.69,15.691c6.349,0,11.922-3.829,14.372-9.402c3.791,0.893,7.877,1.716,12.314,2.443
		c1.931,0.316,3.594,1.389,4.684,3.02c1.105,1.655,1.462,3.638,1.006,5.582c-0.14,0.593-0.896,3.932-1.102,4.801
		c-1.388-0.751-2.848-1.441-4.36-2.045c-11.834-4.726-22.378-3.257-25.073,3.493c-0.839,2.105-1.508,6.435,3.442,11.768
		c2.955,3.184,7.339,6.034,12.34,8.024c1.798,0.718,3.618,1.297,5.418,1.738C246.559,341.492,244.724,342.461,243.229,342.461z"/>
</g>
<g>
</g>
<g>
</g>
<g>
</g>
<g>
</g>
<g>
</g>
<g>
</g>
<g>
</g>
<g>
</g>
<g>
</g>
<g>
</g>
<g>
</g>
<g>
</g>
<g>
</g>
<g>
</g>
<g>
</g>
</svg>
